<svg xmlns="http://www.w3.org/2000/svg" viewBox="0 0 128 128">
  <title>icon</title>
  <rect width="128" height="128" style="fill: #106f99"/>
  <path d="M90,128c0-.1.1-.1.1-.2a.2.2,0,0,0,.2-.2l.2-.2.2-.2.2-.2a7961314590657,7961314590657,0,0,1,.4-.4l.2-.2.2-.2.2-.2a7961314590657,7961314590657,0,0,1,.4-.4l.2-.2.2-.2.2-.2a7961314590657,7961314590657,0,0,1,.4-.4l.2-.2.2-.2.2-.2a7961314590657,7961314590657,0,0,1,.4-.4l.2-.2.2-.2.2-.2a7961314590657,7961314590657,0,0,1,.4-.4l.2-.2.2-.2.2-.2a7961314590657,7961314590657,0,0,1,.4-.4l.2-.2.2-.2.2-.2a7961314590657,7961314590657,0,0,1,.4-.4l.2-.2.2-.2.2-.2a7961314590657,7961314590657,0,0,1,.4-.4l.2-.2.2-.2.2-.2a7961314590657,7961314590657,0,0,1,.4-.4l.2-.2.2-.2.2-.2a7961314590657,7961314590657,0,0,1,.4-.4l.2-.2.2-.2.2-.2a7961314590657,7961314590657,0,0,1,.4-.4l.2-.2.2-.2.2-.2a7961314590657,7961314590657,0,0,1,.4-.4l.2-.2.2-.2.2-.2a7961314590657,7961314590657,0,0,1,.4-.4l.2-.2a10.5,10.5,0,0,0,3.3-7.6V42.6L74.7,10.5H31.9a10.5,10.5,0,0,0-7.6,3.3.2.2,0,0,0-.2.2l-.2.2-.2.2-.2.2a.2.2,0,0,0-.2.2.2.2,0,0,0-.2.2l-.2.2-.2.2-.2.2a.2.2,0,0,0-.2.2.2.2,0,0,0-.2.2.2.2,0,0,0-.2.2l-.2.2a.2.2,0,0,0-.2.2.2.2,0,0,0-.2.2.2.2,0,0,0-.2.2.2.2,0,0,0-.2.2l-.2.2a.2.2,0,0,0-.2.2.2.2,0,0,0-.2.2.2.2,0,0,0-.2.2.2.2,0,0,0-.2.2l-.2.2a.2.2,0,0,0-.2.2.2.2,0,0,0-.2.2.2.2,0,0,0-.2.2.2.2,0,0,0-.2.2l-.2.2a.2.2,0,0,0-.2.2.2.2,0,0,0-.2.2.2.2,0,0,0-.2.2.2.2,0,0,0-.2.2l-.2.2a.2.2,0,0,0-.2.2.2.2,0,0,0-.2.2.2.2,0,0,0-.2.2.2.2,0,0,0-.2.2l-.2.2a.2.2,0,0,0-.2.2.2.2,0,0,0-.2.2.2.2,0,0,0-.2.2.2.2,0,0,0-.2.2l-.2.2a.2.2,0,0,0-.2.2.2.2,0,0,0-.2.2.2.2,0,0,0-.2.2.2.2,0,0,0-.2.2l-.2.2a.2.2,0,0,0-.2.2.2.2,0,0,0-.2.2.2.2,0,0,0-.2.2.2.2,0,0,0-.2.2l-.2.2a.2.2,0,0,0-.2.2.2.2,0,0,0-.2.2.2.2,0,0,0-.2.2.2.2,0,0,0-.2.2l-.2.2a.2.2,0,0,0-.2.2.2.2,0,0,0-.2.2.2.2,0,0,0-.2.2.2.2,0,0,0-.2.2l-.2.2a.2.2,0,0,0-.2.2.2.2,0,0,0-.2.2.2.2,0,0,0-.2.2.2.2,0,0,0-.2.2l-.2.2a.2.2,0,0,0-.2.2.2.2,0,0,0-.2.2.2.2,0,0,0-.2.2.2.2,0,0,0-.2.2l-.2.2a.2.2,0,0,0-.2.2.2.2,0,0,0-.2.2.2.2,0,0,0-.2.2.2.2,0,0,0-.2.2l-.2.2a.2.2,0,0,0-.2.2.2.2,0,0,0-.2.2.2.2,0,0,0-.2.2.2.2,0,0,0-.2.2.2.2,0,0,0-.2.2.2.2,0,0,0-.2.2.2.2,0,0,0-.2.2.2.2,0,0,0-.2.2.2.2,0,0,0-.2.2.2.2,0,0,0-.2.2.2.2,0,0,0-.2.2.2.2,0,0,0-.2.2.2.2,0,0,0-.2.2.2.2,0,0,0-.2.2.2.2,0,0,0-.2.2.2.2,0,0,0-.2.2l-.2.2a.2.2,0,0,0-.2.2.2.2,0,0,0-.2.2.2.2,0,0,0-.2.2.2.2,0,0,0-.2.2l-.2.2a.2.2,0,0,0-.2.2.2.2,0,0,0-.2.2.2.2,0,0,0-.2.2.2.2,0,0,0-.2.2.2.2,0,0,0-.2.2.2.2,0,0,0-.2.2.2.2,0,0,0-.2.2.2.2,0,0,0-.2.2.2.2,0,0,0-.2.2.2.2,0,0,0-.2.2.2.2,0,0,0-.2.2.2.2,0,0,0-.2.2.2.2,0,0,0-.2.2.2.2,0,0,0-.2.2.2.2,0,0,0-.2.2.2.2,0,0,0-.2.2.2.2,0,0,0-.2.2.2.2,0,0,0-.2.2.2.2,0,0,0-.2.2l-.2.2a.2.2,0,0,0-.2.2H0v90Z" style="fill: #045572"/>
  <path d="M31.9,10.5A10.7,10.7,0,0,0,21.2,21.2v85.6a10.7,10.7,0,0,0,10.7,10.7H96.1a10.7,10.7,0,0,0,10.7-10.7V42.6L74.7,10.5H31.9m0,10.7H69.3V48H96.1v58.8H31.9V21.2M42.6,64V74.7H85.4V64H42.6m0,21.4V96.1H69.3V85.4Z" style="fill: #fff"/>
</svg>
