<svg xmlns="http://www.w3.org/2000/svg" viewBox="0 0 128 128.2">
  <title>icon</title>
  <rect width="128" height="128" style="fill: #106f99"/>
  <polygon points="0 128 94.4 128.2 107 115.6 107.6 38 84 13 24 13 0 37 0 128" style="fill: #045572"/>
  <g>
    <path d="M18.7,64.5V26.8a19,19,0,0,1,6.7-15A18.4,18.4,0,0,1,37.8,7H76.1a12.6,12.6,0,0,1,9.3,4L108,33.6a13.6,13.6,0,0,1,4,9.9v58.8c-.1,8.1-3.9,14.1-11.1,17.8A16.5,16.5,0,0,1,93,122H37.7c-7.9-.1-13.6-4.1-17.1-11.1a18.3,18.3,0,0,1-1.9-8.6V64.5Zm6.4,0v37.9a12.6,12.6,0,0,0,2.3,7.5,12.1,12.1,0,0,0,9.4,5.5c2.2.2,4.4.2,6.6.2H92a12.4,12.4,0,0,0,6.6-1.6,12.9,12.9,0,0,0,6.9-12.2V43.7a8.3,8.3,0,0,0-2.4-6L81.5,16.2a8.7,8.7,0,0,0-6.6-2.8H38.4a14,14,0,0,0-4.1.6,13,13,0,0,0-9.2,12.3V64.5Z" style="fill: #fff"/>
    <g>
      <path d="M42.6,65.7a7.7,7.7,0,0,1-6.1-2.5l3.6-3.6a3.1,3.1,0,0,0,2.5,1.1,2.8,2.8,0,0,0,3-3.1V43h5.5V57.8C51.1,63.1,46.9,65.7,42.6,65.7Z" style="fill: #fff"/>
      <path d="M64.2,57.4H60.8v8.1H55.3V43h8.9c5,0,7.7,3.5,7.7,7.2S69.2,57.4,64.2,57.4ZM64,47.9H60.8v4.6H64a2.3,2.3,0,1,0,0-4.6Z" style="fill: #fff"/>
      <path d="M87.7,65.5l-5.2-9.3-1.9,2.2v7.1H75.1V43h5.5v7.9L87.1,43h6.8l-7.7,9.1,7.9,13.4Z" style="fill: #fff"/>
    </g>
  </g>
  <path d="M47.7,74.5l-2.1.5a8.6,8.6,0,0,0-2.3,1.3,11.4,11.4,0,0,0-1.5,1.6c-.3.4-.3.5-.2.7l.2.2a40,40,0,0,0,4,.8l4,.7,1.1,1.9,1,1.8h-.1l-1.6,1.4-1.4,1.3-4-.6-4.1-.7c-.3-.1-.3,0-.4.1s-.1.1-.1.3.3,1,.5,1.4a8,8,0,0,0,5.1,4.6,8.6,8.6,0,0,0,5-.3A9.1,9.1,0,0,0,53,90.4l.3-.2,8.7,4L72.5,99l1.7.8v.8a9.1,9.1,0,0,0,3,5.6,6.2,6.2,0,0,0,1.7,1.1,7.5,7.5,0,0,0,5.7.4,8.4,8.4,0,0,0,4.2-3.2.4.4,0,0,0,.2-.3c0-.2-.1-.5-.2-.5l-4.1-.8-4-.7-1.1-1.8-1-1.9,1.6-1.4,1.6-1.4,3.9.7,4.1.7a.9.9,0,0,0,.5-.3c.1-.1.1-.2,0-.5A9.1,9.1,0,0,0,85.9,91a8.3,8.3,0,0,0-4.7-.5,9.8,9.8,0,0,0-3.6,1.7l-.3.2h-.1L66.8,87.5,56.5,82.7c-.1,0-.1-.1-.1-.3a8.8,8.8,0,0,0-.4-2,10.2,10.2,0,0,0-1-2.1,7.9,7.9,0,0,0-5.8-3.7Z" style="fill: #fff"/>
</svg>
