<svg xmlns="http://www.w3.org/2000/svg" width="128" height="128" viewBox="0 0 128 128">
  <title>icon</title>
  <g style="isolation: isolate">
    <g>
      <rect width="128" height="128" style="fill: #106f99"/>
      <polygon points="82 128 103 107 106.5 85.8 106.5 54.6 103 21 24 22 0 46 0 128 82 128" style="fill: #045572"/>
      <g>
        <g style="opacity: 0.24;mix-blend-mode: darken">
          <path d="M69.7,80.9H94.3L88,74.2l3.5-3.8,12.4,13.2L91.5,96.8,88,93l6.3-6.7H69.7V80.9M98.1,21.8c5.2,0,9.4,4.5,9.4,10V77.6l-9.4-10V31.7H31.9v70.5H98.1V98.8l9.4-10v13.4c0,5.5-4.2,10-9.4,10H31.9c-5.2,0-9.4-4.5-9.4-10V31.8c0-5.5,4.2-10,9.4-10Z"/>
          <path d="M41.5,64.9a7.7,7.7,0,0,1-6.1-2.5L39,58.8a3.1,3.1,0,0,0,2.5,1.1c1.7,0,2.9-.9,2.9-3.1V42.2H50V57C50,62.3,45.7,64.9,41.5,64.9Z"/>
          <path d="M63.1,56.7H59.7v8H54.2V42.2h8.9c5,0,7.7,3.5,7.7,7.2S68.1,56.7,63.1,56.7Zm-.3-9.6H59.7v4.6h3.1a2.3,2.3,0,1,0,0-4.6Z"/>
          <path d="M86.5,64.7l-5.1-9.2-1.9,2.1v7.1H74V42.2h5.5v7.9L86,42.2h6.7l-7.6,9.1L93,64.7Z"/>
        </g>
        <g>
          <path d="M68.7,77.9H93.3L87,71.2l3.5-3.8,12.4,13.2L90.5,93.8,87,90l6.3-6.7H68.7V77.9M97.1,18.8c5.2,0,9.4,4.5,9.4,10V74.6l-9.4-10V28.7H30.9V99.2H97.1V95.8l9.4-10V99.2c0,5.5-4.2,10-9.4,10H30.9c-5.2,0-9.4-4.5-9.4-10V28.8c0-5.5,4.2-10,9.4-10Z" style="fill: #fff"/>
          <g>
            <path d="M40.5,61.9a7.7,7.7,0,0,1-6.1-2.5L38,55.8a3.1,3.1,0,0,0,2.5,1.1c1.7,0,2.9-.9,2.9-3.1V39.2H49V54C49,59.3,44.7,61.9,40.5,61.9Z" style="fill: #fff"/>
            <path d="M62.1,53.7H58.7v8H53.2V39.2h8.9c5,0,7.7,3.5,7.7,7.2S67.1,53.7,62.1,53.7Zm-.3-9.6H58.7v4.6h3.1a2.3,2.3,0,1,0,0-4.6Z" style="fill: #fff"/>
            <path d="M85.5,61.7l-5.1-9.2-1.9,2.1v7.1H73V39.2h5.5v7.9L85,39.2h6.7l-7.6,9.1L92,61.7Z" style="fill: #fff"/>
          </g>
        </g>
      </g>
    </g>
  </g>
</svg>
